<svg width="55" height="55" viewBox="0 0 55 55" fill="none" xmlns="http://www.w3.org/2000/svg">
<path d="M25.7111 0.894428C26.8373 0.331373 28.1627 0.331372 29.2889 0.894427L52.7889 12.6444C54.144 13.322 55 14.707 55 16.2221V38.7779C55 40.293 54.144 41.678 52.7889 42.3556L29.2889 54.1056C28.1627 54.6686 26.8373 54.6686 25.7111 54.1056L2.21115 42.3556C0.856011 41.678 0 40.293 0 38.7779V16.2221C0 14.707 0.856009 13.322 2.21115 12.6444L25.7111 0.894428Z" fill="url(#paint0_linear_91_5)"/>
<path d="M25.7111 0.894428C26.8373 0.331373 28.1627 0.331372 29.2889 0.894427L52.7889 12.6444C54.144 13.322 55 14.707 55 16.2221V38.7779C55 40.293 54.144 41.678 52.7889 42.3556L29.2889 54.1056C28.1627 54.6686 26.8373 54.6686 25.7111 54.1056L2.21115 42.3556C0.856011 41.678 0 40.293 0 38.7779V16.2221C0 14.707 0.856009 13.322 2.21115 12.6444L25.7111 0.894428Z" fill="url(#paint1_linear_91_5)"/>
<path d="M0 16.2221V38.7779C0 40.293 0.856011 41.678 2.21115 42.3556L25.7111 54.1056C26.8373 54.6686 28.1627 54.6686 29.2889 54.1056L52.7889 42.3556C54.144 41.678 55 40.293 55 38.7779V16.2221C55 14.707 54.144 13.322 52.7889 12.6444L29.2889 0.894427C28.1627 0.331372 26.8373 0.331373 25.7111 0.894428L2.21115 12.6444C0.856009 13.322 0 14.707 0 16.2221Z" stroke="black"/>
<path d="M28 17C22.48 17 18 21.48 18 27C18 32.52 22.48 37 28 37C33.52 37 38 32.52 38 27C38 21.48 33.52 17 28 17V17ZM31.61 23.34C32.68 23.34 33.54 24.2 33.54 25.27C33.54 26.34 32.68 27.2 31.61 27.2C30.54 27.2 29.68 26.34 29.68 25.27C29.67 24.2 30.54 23.34 31.61 23.34V23.34ZM25.61 21.76C26.91 21.76 27.97 22.82 27.97 24.12C27.97 25.42 26.91 26.48 25.61 26.48C24.31 26.48 23.25 25.42 23.25 24.12C23.25 22.81 24.3 21.76 25.61 21.76ZM25.61 30.89V34.64C23.21 33.89 21.31 32.04 20.47 29.68C21.52 28.56 24.14 27.99 25.61 27.99C26.14 27.99 26.81 28.07 27.51 28.21C25.87 29.08 25.61 30.23 25.61 30.89ZM28 35C27.73 35 27.47 34.99 27.21 34.96V30.89C27.21 29.47 30.15 28.76 31.61 28.76C32.68 28.76 34.53 29.15 35.45 29.91C34.28 32.88 31.39 35 28 35V35Z" fill="white"/>
<defs>
<linearGradient id="paint0_linear_91_5" x1="27.5" y1="0" x2="27.5" y2="55" gradientUnits="userSpaceOnUse">
<stop stop-opacity="0.7"/>
<stop offset="1" stop-opacity="0.1"/>
</linearGradient>
<linearGradient id="paint1_linear_91_5" x1="27.5" y1="0" x2="27.5" y2="55" gradientUnits="userSpaceOnUse">
<stop stop-opacity="0.7"/>
<stop offset="1" stop-opacity="0.1"/>
</linearGradient>
</defs>
</svg>
