<svg width="32" height="33" viewBox="0 0 32 33" fill="none" xmlns="http://www.w3.org/2000/svg">
<path d="M16 27C13.8 27 12 28.35 12 30C12 31.65 13.8 33 16 33C18.2 33 20 31.65 20 30C20 28.35 18.2 27 16 27ZM4 0C1.8 0 0 1.35 0 3C0 4.65 1.8 6 4 6C6.2 6 8 4.65 8 3C8 1.35 6.2 0 4 0ZM4 9C1.8 9 0 10.35 0 12C0 13.65 1.8 15 4 15C6.2 15 8 13.65 8 12C8 10.35 6.2 9 4 9ZM4 18C1.8 18 0 19.35 0 21C0 22.65 1.8 24 4 24C6.2 24 8 22.65 8 21C8 19.35 6.2 18 4 18ZM28 6C30.2 6 32 4.65 32 3C32 1.35 30.2 0 28 0C25.8 0 24 1.35 24 3C24 4.65 25.8 6 28 6ZM16 18C13.8 18 12 19.35 12 21C12 22.65 13.8 24 16 24C18.2 24 20 22.65 20 21C20 19.35 18.2 18 16 18ZM28 18C25.8 18 24 19.35 24 21C24 22.65 25.8 24 28 24C30.2 24 32 22.65 32 21C32 19.35 30.2 18 28 18ZM28 9C25.8 9 24 10.35 24 12C24 13.65 25.8 15 28 15C30.2 15 32 13.65 32 12C32 10.35 30.2 9 28 9ZM16 9C13.8 9 12 10.35 12 12C12 13.65 13.8 15 16 15C18.2 15 20 13.65 20 12C20 10.35 18.2 9 16 9ZM16 0C13.8 0 12 1.35 12 3C12 4.65 13.8 6 16 6C18.2 6 20 4.65 20 3C20 1.35 18.2 0 16 0Z" fill="#1D4147"/>
</svg>
