<svg width="55" height="55" viewBox="0 0 55 55" fill="none" xmlns="http://www.w3.org/2000/svg">
<path d="M25.7111 0.894428C26.8373 0.331373 28.1627 0.331372 29.2889 0.894427L52.7889 12.6444C54.144 13.322 55 14.707 55 16.2221V38.7779C55 40.293 54.144 41.678 52.7889 42.3556L29.2889 54.1056C28.1627 54.6686 26.8373 54.6686 25.7111 54.1056L2.21115 42.3556C0.856011 41.678 0 40.293 0 38.7779V16.2221C0 14.707 0.856009 13.322 2.21115 12.6444L25.7111 0.894428Z" fill="url(#paint0_linear_91_4)"/>
<path d="M25.7111 0.894428C26.8373 0.331373 28.1627 0.331372 29.2889 0.894427L52.7889 12.6444C54.144 13.322 55 14.707 55 16.2221V38.7779C55 40.293 54.144 41.678 52.7889 42.3556L29.2889 54.1056C28.1627 54.6686 26.8373 54.6686 25.7111 54.1056L2.21115 42.3556C0.856011 41.678 0 40.293 0 38.7779V16.2221C0 14.707 0.856009 13.322 2.21115 12.6444L25.7111 0.894428Z" fill="url(#paint1_linear_91_4)"/>
<path d="M0 16.2221V38.7779C0 40.293 0.856011 41.678 2.21115 42.3556L25.7111 54.1056C26.8373 54.6686 28.1627 54.6686 29.2889 54.1056L52.7889 42.3556C54.144 41.678 55 40.293 55 38.7779V16.2221C55 14.707 54.144 13.322 52.7889 12.6444L29.2889 0.894427C28.1627 0.331372 26.8373 0.331373 25.7111 0.894428L2.21115 12.6444C0.856009 13.322 0 14.707 0 16.2221Z" stroke="black"/>
<g clip-path="url(#clip0_91_4)">
<path d="M30 27H18V29H30V27ZM30 23H18V25H30V23ZM18 33H26V31H18V33ZM37.5 28.5L39 30L32.01 37L27.5 32.5L29 31L32.01 34L37.5 28.5Z" fill="white"/>
</g>
<defs>
<linearGradient id="paint0_linear_91_4" x1="27.5" y1="0" x2="27.5" y2="55" gradientUnits="userSpaceOnUse">
<stop stop-opacity="0.7"/>
<stop offset="1" stop-opacity="0.1"/>
</linearGradient>
<linearGradient id="paint1_linear_91_4" x1="27.5" y1="0" x2="27.5" y2="55" gradientUnits="userSpaceOnUse">
<stop stop-opacity="0.7"/>
<stop offset="1" stop-opacity="0.1"/>
</linearGradient>
<clipPath id="clip0_91_4">
<rect width="24" height="24" fill="white" transform="translate(16 17)"/>
</clipPath>
</defs>
</svg>
